<svg xmlns="http://www.w3.org/2000/svg" xmlns:xlink="http://www.w3.org/1999/xlink" contentStyleType="text/css" height="1375px" preserveAspectRatio="none" style="width:2595px;height:1375px;background:#FFFFFF;" version="1.1" viewBox="0 0 2595 1375" width="2595px" zoomAndPan="magnify"><defs/><g><!--cluster UM--><g id="cluster_UM"><rect fill="none" height="237.59" rx="2.5" ry="2.5" style="stroke:#181818;stroke-width:1.0;" width="492" x="710" y="7"/><text fill="#000000" font-family="sans-serif" font-size="14" font-weight="bold" lengthAdjust="spacing" textLength="144.0264" x="883.9868" y="21.9951">User Management</text></g><!--cluster VM--><g id="cluster_VM"><rect fill="none" height="271.59" rx="2.5" ry="2.5" style="stroke:#181818;stroke-width:1.0;" width="549" x="1242" y="141.3"/><text fill="#000000" font-family="sans-serif" font-size="14" font-weight="bold" lengthAdjust="spacing" textLength="164.7666" x="1434.1167" y="156.2951">Vendor Management</text></g><!--cluster PC--><g id="cluster_PC"><rect fill="none" height="271.6" rx="2.5" ry="2.5" style="stroke:#181818;stroke-width:1.0;" width="558" x="1831" y="309.59"/><text fill="#000000" font-family="sans-serif" font-size="14" font-weight="bold" lengthAdjust="spacing" textLength="126.9365" x="2046.5317" y="324.5851">Product Catalog</text></g><!--cluster OM--><g id="cluster_OM"><rect fill="none" height="271.59" rx="2.5" ry="2.5" style="stroke:#181818;stroke-width:1.0;" width="517" x="1274" y="477.89"/><text fill="#000000" font-family="sans-serif" font-size="14" font-weight="bold" lengthAdjust="spacing" textLength="153.1523" x="1455.9238" y="492.8851">Order Management</text></g><!--cluster PP--><g id="cluster_PP"><rect fill="none" height="271.59" rx="2.5" ry="2.5" style="stroke:#181818;stroke-width:1.0;" width="582" x="652" y="646.19"/><text fill="#000000" font-family="sans-serif" font-size="14" font-weight="bold" lengthAdjust="spacing" textLength="160.4805" x="862.7598" y="661.1851">Payment Processing</text></g><!--cluster RR--><g id="cluster_RR"><rect fill="none" height="271.59" rx="2.5" ry="2.5" style="stroke:#181818;stroke-width:1.0;" width="549" x="1953" y="646.19"/><text fill="#000000" font-family="sans-serif" font-size="14" font-weight="bold" lengthAdjust="spacing" textLength="147.5195" x="2153.7402" y="661.1851">Review and Rating</text></g><!--cluster NS--><g id="cluster_NS"><rect fill="none" height="271.6" rx="2.5" ry="2.5" style="stroke:#181818;stroke-width:1.0;" width="639" x="1274" y="814.48"/><text fill="#000000" font-family="sans-serif" font-size="14" font-weight="bold" lengthAdjust="spacing" textLength="155.7295" x="1515.6353" y="829.4751">Notification System</text></g><!--cluster AM--><g id="cluster_AM"><rect fill="none" height="271.6" rx="2.5" ry="2.5" style="stroke:#181818;stroke-width:1.0;" width="358" x="132" y="814.48"/><text fill="#000000" font-family="sans-serif" font-size="14" font-weight="bold" lengthAdjust="spacing" textLength="158.1357" x="231.9321" y="829.4751">Admin Management</text></g><!--cluster CM--><g id="cluster_CM"><rect fill="none" height="271.59" rx="2.5" ry="2.5" style="stroke:#181818;stroke-width:1.0;" width="657" x="577" y="982.78"/><text fill="#000000" font-family="sans-serif" font-size="14" font-weight="bold" lengthAdjust="spacing" textLength="137.4912" x="836.7544" y="997.7751">Club Membership</text></g><!--cluster WM--><g id="cluster_WM"><rect fill="none" height="218.59" rx="2.5" ry="2.5" style="stroke:#181818;stroke-width:1.0;" width="530" x="7" y="1151.08"/><text fill="#000000" font-family="sans-serif" font-size="14" font-weight="bold" lengthAdjust="spacing" textLength="158.6006" x="192.6997" y="1166.0751">Wallet Management</text></g><!--entity UserService--><g id="elem_UserService"><rect fill="#F1F1F1" height="36.2969" rx="2.5" ry="2.5" style="stroke:#181818;stroke-width:0.5;" width="103.6514" x="895.17" y="50"/><text fill="#000000" font-family="sans-serif" font-size="14" lengthAdjust="spacing" textLength="83.6514" x="905.17" y="72.9951">UserService</text></g><!--entity UserRepository--><g id="elem_UserRepository"><rect fill="#F1F1F1" height="36.2969" rx="2.5" ry="2.5" style="stroke:#181818;stroke-width:0.5;" width="126.9824" x="733.51" y="50"/><text fill="#000000" font-family="sans-serif" font-size="14" lengthAdjust="spacing" textLength="106.9824" x="743.51" y="72.9951">UserRepository</text></g><!--entity UserAggregate--><g id="elem_UserAggregate"><rect fill="#F1F1F1" height="36.2969" rx="2.5" ry="2.5" style="stroke:#181818;stroke-width:0.5;" width="125.1982" x="1033.4" y="50"/><text fill="#000000" font-family="sans-serif" font-size="14" lengthAdjust="spacing" textLength="105.1982" x="1043.4" y="72.9951">UserAggregate</text></g><!--entity UserEvents--><g id="elem_UserEvents"><rect fill="#F1F1F1" height="36.2969" rx="2.5" ry="2.5" style="stroke:#181818;stroke-width:0.5;" width="99.3105" x="738.34" y="184.3"/><text fill="#000000" font-family="sans-serif" font-size="14" lengthAdjust="spacing" textLength="79.3105" x="748.34" y="207.2951">UserEvents</text></g><!--entity VendorService--><g id="elem_VendorService"><rect fill="#F1F1F1" height="36.2969" rx="2.5" ry="2.5" style="stroke:#181818;stroke-width:0.5;" width="122.0127" x="1446.99" y="184.3"/><text fill="#000000" font-family="sans-serif" font-size="14" lengthAdjust="spacing" textLength="102.0127" x="1456.99" y="207.2951">VendorService</text></g><!--entity VendorRepository--><g id="elem_VendorRepository"><rect fill="#F1F1F1" height="36.2969" rx="2.5" ry="2.5" style="stroke:#181818;stroke-width:0.5;" width="145.3438" x="1266.33" y="184.3"/><text fill="#000000" font-family="sans-serif" font-size="14" lengthAdjust="spacing" textLength="125.3438" x="1276.33" y="207.2951">VendorRepository</text></g><!--entity VendorAggregate--><g id="elem_VendorAggregate"><rect fill="#F1F1F1" height="36.2969" rx="2.5" ry="2.5" style="stroke:#181818;stroke-width:0.5;" width="143.5596" x="1604.22" y="184.3"/><text fill="#000000" font-family="sans-serif" font-size="14" lengthAdjust="spacing" textLength="123.5596" x="1614.22" y="207.2951">VendorAggregate</text></g><!--entity VendorEvents--><g id="elem_VendorEvents"><rect fill="#F1F1F1" height="36.2969" rx="2.5" ry="2.5" style="stroke:#181818;stroke-width:0.5;" width="117.6719" x="1280.16" y="352.59"/><text fill="#000000" font-family="sans-serif" font-size="14" lengthAdjust="spacing" textLength="97.6719" x="1290.16" y="375.5851">VendorEvents</text></g><!--entity ProductService--><g id="elem_ProductService"><rect fill="#F1F1F1" height="36.2969" rx="2.5" ry="2.5" style="stroke:#181818;stroke-width:0.5;" width="125.4512" x="2056.27" y="352.59"/><text fill="#000000" font-family="sans-serif" font-size="14" lengthAdjust="spacing" textLength="105.4512" x="2066.27" y="375.5851">ProductService</text></g><!--entity ProductRepository--><g id="elem_ProductRepository"><rect fill="#F1F1F1" height="36.2969" rx="2.5" ry="2.5" style="stroke:#181818;stroke-width:0.5;" width="148.7822" x="2216.61" y="352.59"/><text fill="#000000" font-family="sans-serif" font-size="14" lengthAdjust="spacing" textLength="128.7822" x="2226.61" y="375.5851">ProductRepository</text></g><!--entity ProductAggregate--><g id="elem_ProductAggregate"><rect fill="#F1F1F1" height="36.2969" rx="2.5" ry="2.5" style="stroke:#181818;stroke-width:0.5;" width="146.998" x="1874.5" y="352.59"/><text fill="#000000" font-family="sans-serif" font-size="14" lengthAdjust="spacing" textLength="126.998" x="1884.5" y="375.5851">ProductAggregate</text></g><!--entity ProductEvents--><g id="elem_ProductEvents"><rect fill="#F1F1F1" height="36.2969" rx="2.5" ry="2.5" style="stroke:#181818;stroke-width:0.5;" width="121.1104" x="2050.44" y="520.89"/><text fill="#000000" font-family="sans-serif" font-size="14" lengthAdjust="spacing" textLength="101.1104" x="2060.44" y="543.8851">ProductEvents</text></g><!--entity OrderService--><g id="elem_OrderService"><rect fill="#F1F1F1" height="36.2969" rx="2.5" ry="2.5" style="stroke:#181818;stroke-width:0.5;" width="111.7725" x="1317.11" y="520.89"/><text fill="#000000" font-family="sans-serif" font-size="14" lengthAdjust="spacing" textLength="91.7725" x="1327.11" y="543.8851">OrderService</text></g><!--entity OrderRepository--><g id="elem_OrderRepository"><rect fill="#F1F1F1" height="36.2969" rx="2.5" ry="2.5" style="stroke:#181818;stroke-width:0.5;" width="135.1035" x="1463.45" y="520.89"/><text fill="#000000" font-family="sans-serif" font-size="14" lengthAdjust="spacing" textLength="115.1035" x="1473.45" y="543.8851">OrderRepository</text></g><!--entity OrderAggregate--><g id="elem_OrderAggregate"><rect fill="#F1F1F1" height="36.2969" rx="2.5" ry="2.5" style="stroke:#181818;stroke-width:0.5;" width="133.3193" x="1633.34" y="520.89"/><text fill="#000000" font-family="sans-serif" font-size="14" lengthAdjust="spacing" textLength="113.3193" x="1643.34" y="543.8851">OrderAggregate</text></g><!--entity OrderEvents--><g id="elem_OrderEvents"><rect fill="#F1F1F1" height="36.2969" rx="2.5" ry="2.5" style="stroke:#181818;stroke-width:0.5;" width="107.4316" x="1569.28" y="689.19"/><text fill="#000000" font-family="sans-serif" font-size="14" lengthAdjust="spacing" textLength="87.4316" x="1579.28" y="712.1851">OrderEvents</text></g><!--entity PaymentService--><g id="elem_PaymentService"><rect fill="#F1F1F1" height="36.2969" rx="2.5" ry="2.5" style="stroke:#181818;stroke-width:0.5;" width="133.6611" x="1057.17" y="689.19"/><text fill="#000000" font-family="sans-serif" font-size="14" lengthAdjust="spacing" textLength="113.6611" x="1067.17" y="712.1851">PaymentService</text></g><!--entity PaymentRepository--><g id="elem_PaymentRepository"><rect fill="#F1F1F1" height="36.2969" rx="2.5" ry="2.5" style="stroke:#181818;stroke-width:0.5;" width="156.9922" x="675.5" y="689.19"/><text fill="#000000" font-family="sans-serif" font-size="14" lengthAdjust="spacing" textLength="136.9922" x="685.5" y="712.1851">PaymentRepository</text></g><!--entity PaymentAggregate--><g id="elem_PaymentAggregate"><rect fill="#F1F1F1" height="36.2969" rx="2.5" ry="2.5" style="stroke:#181818;stroke-width:0.5;" width="155.208" x="867.4" y="689.19"/><text fill="#000000" font-family="sans-serif" font-size="14" lengthAdjust="spacing" textLength="135.208" x="877.4" y="712.1851">PaymentAggregate</text></g><!--entity PaymentEvents--><g id="elem_PaymentEvents"><rect fill="#F1F1F1" height="36.2969" rx="2.5" ry="2.5" style="stroke:#181818;stroke-width:0.5;" width="129.3203" x="917.34" y="857.48"/><text fill="#000000" font-family="sans-serif" font-size="14" lengthAdjust="spacing" textLength="109.3203" x="927.34" y="880.4751">PaymentEvents</text></g><!--entity ReviewService--><g id="elem_ReviewService"><rect fill="#F1F1F1" height="36.2969" rx="2.5" ry="2.5" style="stroke:#181818;stroke-width:0.5;" width="122.3203" x="2355.84" y="689.19"/><text fill="#000000" font-family="sans-serif" font-size="14" lengthAdjust="spacing" textLength="102.3203" x="2365.84" y="712.1851">ReviewService</text></g><!--entity ReviewRepository--><g id="elem_ReviewRepository"><rect fill="#F1F1F1" height="36.2969" rx="2.5" ry="2.5" style="stroke:#181818;stroke-width:0.5;" width="145.6514" x="2175.17" y="689.19"/><text fill="#000000" font-family="sans-serif" font-size="14" lengthAdjust="spacing" textLength="125.6514" x="2185.17" y="712.1851">ReviewRepository</text></g><!--entity ReviewAggregate--><g id="elem_ReviewAggregate"><rect fill="#F1F1F1" height="36.2969" rx="2.5" ry="2.5" style="stroke:#181818;stroke-width:0.5;" width="143.8672" x="1996.07" y="689.19"/><text fill="#000000" font-family="sans-serif" font-size="14" lengthAdjust="spacing" textLength="123.8672" x="2006.07" y="712.1851">ReviewAggregate</text></g><!--entity ReviewEvents--><g id="elem_ReviewEvents"><rect fill="#F1F1F1" height="36.2969" rx="2.5" ry="2.5" style="stroke:#181818;stroke-width:0.5;" width="117.9795" x="2189.01" y="857.48"/><text fill="#000000" font-family="sans-serif" font-size="14" lengthAdjust="spacing" textLength="97.9795" x="2199.01" y="880.4751">ReviewEvents</text></g><!--entity NotificationService--><g id="elem_NotificationService"><rect fill="#F1F1F1" height="36.2969" rx="2.5" ry="2.5" style="stroke:#181818;stroke-width:0.5;" width="152.0703" x="1297.96" y="857.48"/><text fill="#000000" font-family="sans-serif" font-size="14" lengthAdjust="spacing" textLength="132.0703" x="1307.96" y="880.4751">NotificationService</text></g><!--entity NotificationRepository--><g id="elem_NotificationRepository"><rect fill="#F1F1F1" height="36.2969" rx="2.5" ry="2.5" style="stroke:#181818;stroke-width:0.5;" width="175.4014" x="1485.3" y="857.48"/><text fill="#000000" font-family="sans-serif" font-size="14" lengthAdjust="spacing" textLength="155.4014" x="1495.3" y="880.4751">NotificationRepository</text></g><!--entity NotificationAggregate--><g id="elem_NotificationAggregate"><rect fill="#F1F1F1" height="36.2969" rx="2.5" ry="2.5" style="stroke:#181818;stroke-width:0.5;" width="173.6172" x="1696.19" y="857.48"/><text fill="#000000" font-family="sans-serif" font-size="14" lengthAdjust="spacing" textLength="153.6172" x="1706.19" y="880.4751">NotificationAggregate</text></g><!--entity NotificationEvents--><g id="elem_NotificationEvents"><rect fill="#F1F1F1" height="36.2969" rx="2.5" ry="2.5" style="stroke:#181818;stroke-width:0.5;" width="147.7295" x="1499.14" y="1025.78"/><text fill="#000000" font-family="sans-serif" font-size="14" lengthAdjust="spacing" textLength="127.7295" x="1509.14" y="1048.7751">NotificationEvents</text></g><!--entity AdminService--><g id="elem_AdminService"><rect fill="#F1F1F1" height="36.2969" rx="2.5" ry="2.5" style="stroke:#181818;stroke-width:0.5;" width="116.6055" x="155.7" y="857.48"/><text fill="#000000" font-family="sans-serif" font-size="14" lengthAdjust="spacing" textLength="96.6055" x="165.7" y="880.4751">AdminService</text></g><!--entity AdminRepository--><g id="elem_AdminRepository"><rect fill="#F1F1F1" height="36.2969" rx="2.5" ry="2.5" style="stroke:#181818;stroke-width:0.5;" width="139.9365" x="307.03" y="857.48"/><text fill="#000000" font-family="sans-serif" font-size="14" lengthAdjust="spacing" textLength="119.9365" x="317.03" y="880.4751">AdminRepository</text></g><!--entity AdminAggregate--><g id="elem_AdminAggregate"><rect fill="#F1F1F1" height="36.2969" rx="2.5" ry="2.5" style="stroke:#181818;stroke-width:0.5;" width="138.1523" x="155.92" y="1025.78"/><text fill="#000000" font-family="sans-serif" font-size="14" lengthAdjust="spacing" textLength="118.1523" x="165.92" y="1048.7751">AdminAggregate</text></g><!--entity AdminEvents--><g id="elem_AdminEvents"><rect fill="#F1F1F1" height="36.2969" rx="2.5" ry="2.5" style="stroke:#181818;stroke-width:0.5;" width="112.2646" x="328.87" y="1025.78"/><text fill="#000000" font-family="sans-serif" font-size="14" lengthAdjust="spacing" textLength="92.2646" x="338.87" y="1048.7751">AdminEvents</text></g><!--entity MembershipService--><g id="elem_MembershipService"><rect fill="#F1F1F1" height="36.2969" rx="2.5" ry="2.5" style="stroke:#181818;stroke-width:0.5;" width="158.2705" x="619.86" y="1025.78"/><text fill="#000000" font-family="sans-serif" font-size="14" lengthAdjust="spacing" textLength="138.2705" x="629.86" y="1048.7751">MembershipService</text></g><!--entity MembershipRepository--><g id="elem_MembershipRepository"><rect fill="#F1F1F1" height="36.2969" rx="2.5" ry="2.5" style="stroke:#181818;stroke-width:0.5;" width="181.6016" x="1028.2" y="1025.78"/><text fill="#000000" font-family="sans-serif" font-size="14" lengthAdjust="spacing" textLength="161.6016" x="1038.2" y="1048.7751">MembershipRepository</text></g><!--entity MembershipAggregate--><g id="elem_MembershipAggregate"><rect fill="#F1F1F1" height="36.2969" rx="2.5" ry="2.5" style="stroke:#181818;stroke-width:0.5;" width="179.8174" x="813.09" y="1025.78"/><text fill="#000000" font-family="sans-serif" font-size="14" lengthAdjust="spacing" textLength="159.8174" x="823.09" y="1048.7751">MembershipAggregate</text></g><!--entity MembershipEvents--><g id="elem_MembershipEvents"><rect fill="#F1F1F1" height="36.2969" rx="2.5" ry="2.5" style="stroke:#181818;stroke-width:0.5;" width="153.9297" x="1042.04" y="1194.08"/><text fill="#000000" font-family="sans-serif" font-size="14" lengthAdjust="spacing" textLength="133.9297" x="1052.04" y="1217.0751">MembershipEvents</text></g><!--entity WalletService--><g id="elem_WalletService"><rect fill="#F1F1F1" height="36.2969" rx="2.5" ry="2.5" style="stroke:#181818;stroke-width:0.5;" width="116.0449" x="49.98" y="1194.08"/><text fill="#000000" font-family="sans-serif" font-size="14" lengthAdjust="spacing" textLength="96.0449" x="59.98" y="1217.0751">WalletService</text></g><!--entity WalletRepository--><g id="elem_WalletRepository"><rect fill="#F1F1F1" height="36.2969" rx="2.5" ry="2.5" style="stroke:#181818;stroke-width:0.5;" width="139.376" x="201.31" y="1194.08"/><text fill="#000000" font-family="sans-serif" font-size="14" lengthAdjust="spacing" textLength="119.376" x="211.31" y="1217.0751">WalletRepository</text></g><!--entity WalletAggregate--><g id="elem_WalletAggregate"><rect fill="#F1F1F1" height="36.2969" rx="2.5" ry="2.5" style="stroke:#181818;stroke-width:0.5;" width="137.5918" x="375.2" y="1194.08"/><text fill="#000000" font-family="sans-serif" font-size="14" lengthAdjust="spacing" textLength="117.5918" x="385.2" y="1217.0751">WalletAggregate</text></g><!--entity WalletEvents--><g id="elem_WalletEvents"><rect fill="#F1F1F1" height="36.2969" rx="2.5" ry="2.5" style="stroke:#181818;stroke-width:0.5;" width="111.7041" x="215.15" y="1309.37"/><text fill="#000000" font-family="sans-serif" font-size="14" lengthAdjust="spacing" textLength="91.7041" x="225.15" y="1332.3651">WalletEvents</text></g><!--link UM to VM--><!--link VM to PC--><!--link PC to OM--><!--link OM to PP--><!--link PP to RR--><!--link RR to NS--><!--link NS to AM--><!--link AM to CM--><!--link CM to WM--><!--link UserService to OrderService--><g id="link_UserService_OrderService"><path d="M958.04,86.57 C994.12,142.43 1114.07,319.72 1250,428.89 C1274.64,448.68 1288.68,441.7 1313,461.89 C1333.46,478.88 1348.2512,498.8686 1359.0812,515.5386 " fill="none" id="UserService-to-OrderService" style="stroke:#181818;stroke-width:1.0;"/><polygon fill="#181818" points="1362.35,520.57,1360.8011,510.8437,1359.626,516.3771,1354.0926,515.202,1362.35,520.57" style="stroke:#181818;stroke-width:1.0;"/><text fill="#000000" font-family="sans-serif" font-size="13" lengthAdjust="spacing" textLength="114.5371" x="1104" y="281.6569">User places order</text></g><!--link VendorService to ProductService--><g id="link_VendorService_ProductService"><path d="M1512.62,220.92 C1518.86,240.58 1532.05,271.58 1556,285.59 C1579.16,299.14 2014.16,283.42 2039,293.59 C2068.28,305.58 2089.4454,328.9534 2103.3554,347.4634 " fill="none" id="VendorService-to-ProductService" style="stroke:#181818;stroke-width:1.0;"/><polygon fill="#181818" points="2106.96,352.26,2104.7509,342.6621,2103.9562,348.2629,2098.3554,347.4682,2106.96,352.26" style="stroke:#181818;stroke-width:1.0;"/><text fill="#000000" font-family="sans-serif" font-size="13" lengthAdjust="spacing" textLength="171.8628" x="1557" y="281.6569">Vendor manages products</text></g><!--link ProductService to OrderService--><g id="link_ProductService_OrderService"><path d="M2101.02,389.2 C2085.85,402.72 2062.83,420.51 2039,428.89 C2007.87,439.83 1475.98,448.1 1446,461.89 C1418.71,474.44 1399.8124,497.2042 1387.3224,515.5042 " fill="none" id="ProductService-to-OrderService" style="stroke:#181818;stroke-width:1.0;"/><polygon fill="#181818" points="1383.94,520.46,1392.3174,515.2813,1386.7586,516.3302,1385.7097,510.7714,1383.94,520.46" style="stroke:#181818;stroke-width:1.0;"/><text fill="#000000" font-family="sans-serif" font-size="13" lengthAdjust="spacing" textLength="154.9844" x="1931" y="449.9569">Product listing in orders</text></g><!--link OrderService to PaymentService--><g id="link_OrderService_PaymentService"><path d="M1360.4,557.45 C1349.54,570.94 1332.53,588.72 1313,597.19 C1284.41,609.58 1198.92,587.89 1173,605.19 C1144.27,624.35 1133.0724,659.4979 1128.1424,682.9879 " fill="none" id="OrderService-to-PaymentService" style="stroke:#181818;stroke-width:1.0;"/><polygon fill="#181818" points="1126.91,688.86,1132.6733,680.8735,1127.937,683.9666,1124.8439,679.2303,1126.91,688.86" style="stroke:#181818;stroke-width:1.0;"/><text fill="#000000" font-family="sans-serif" font-size="13" lengthAdjust="spacing" textLength="173.6909" x="1174" y="618.2569">Order payment processing</text></g><!--link PaymentService to NotificationService--><g id="link_PaymentService_NotificationService"><path d="M1140.01,725.85 C1156.8,743.58 1184.52,771.07 1212,790.48 C1250.57,817.73 1293.6544,839.2947 1327.5044,854.6247 " fill="none" id="PaymentService-to-NotificationService" style="stroke:#181818;stroke-width:1.0;"/><polygon fill="#181818" points="1332.97,857.1,1326.4217,849.7433,1328.4153,855.0373,1323.1214,857.0308,1332.97,857.1" style="stroke:#181818;stroke-width:1.0;"/><text fill="#000000" font-family="sans-serif" font-size="13" lengthAdjust="spacing" textLength="134.7354" x="1213" y="786.5469">Payment notification</text></g><!--link OrderService to NotificationService--><g id="link_OrderService_NotificationService"><path d="M1373.05,557.56 C1373.23,615.37 1373.7623,793.72 1373.9323,851.29 " fill="none" id="OrderService-to-NotificationService" style="stroke:#181818;stroke-width:1.0;"/><polygon fill="#181818" points="1373.95,857.29,1377.9234,848.2782,1373.9352,852.29,1369.9234,848.3019,1373.95,857.29" style="stroke:#181818;stroke-width:1.0;"/><text fill="#000000" font-family="sans-serif" font-size="13" lengthAdjust="spacing" textLength="158.4883" x="1374" y="711.8969">Order status notification</text></g><!--link UserService to ReviewService--><g id="link_UserService_ReviewService"><path d="M999.15,83.24 C1004.81,84.43 1010.51,85.48 1016,86.3 C1319.52,131.14 2186.14,56.6 2381,293.59 C2480.13,414.16 2438.5177,621.0673 2423.0977,683.0873 " fill="none" id="UserService-to-ReviewService" style="stroke:#181818;stroke-width:1.0;"/><polygon fill="#181818" points="2421.65,688.91,2427.7034,681.141,2422.8564,684.0577,2419.9397,679.2108,2421.65,688.91" style="stroke:#181818;stroke-width:1.0;"/><text fill="#000000" font-family="sans-serif" font-size="13" lengthAdjust="spacing" textLength="149.9634" x="2438" y="375.3069">Submit reviews/ratings</text></g><!--link ReviewService to ProductService--><g id="link_ReviewService_ProductService"><path d="M2402,688.94 C2387.03,672.33 2362.73,647.34 2338,630.19 C2310.07,610.81 2294.07,620.14 2269,597.19 C2217.48,550.01 2228.28,519.66 2189,461.89 C2171.17,435.67 2152.1031,411.6425 2137.4431,393.8325 " fill="none" id="ReviewService-to-ProductService" style="stroke:#181818;stroke-width:1.0;"/><polygon fill="#181818" points="2133.63,389.2,2136.2614,398.6908,2136.8076,393.0604,2142.438,393.6066,2133.63,389.2" style="stroke:#181818;stroke-width:1.0;"/><text fill="#000000" font-family="sans-serif" font-size="13" lengthAdjust="spacing" textLength="151.7661" x="2270" y="543.6069">Display reviews/ratings</text></g><!--link UserService to MembershipService--><g id="link_UserService_MembershipService"><path d="M895.01,82.07 C889.27,83.5 883.51,84.93 878,86.3 C721.94,125.07 535,40.64 535,201.44 C535,201.44 535,201.44 535,876.63 C535,916.67 540.46,934.11 572,958.78 C587.66,971.02 598.2,957.94 616,966.78 C644.37,980.88 666.1897,1003.0436 681.2397,1020.7936 " fill="none" id="UserService-to-MembershipService" style="stroke:#181818;stroke-width:1.0;"/><polygon fill="#181818" points="685.12,1025.37,682.3505,1015.9185,681.8864,1021.5563,676.2487,1021.0922,685.12,1025.37" style="stroke:#181818;stroke-width:1.0;"/><text fill="#000000" font-family="sans-serif" font-size="13" lengthAdjust="spacing" textLength="112.436" x="536" y="543.6069">Subscribe to club</text></g><!--link MembershipService to WalletService--><g id="link_MembershipService_WalletService"><path d="M679.86,1062.53 C664.02,1075.94 640.25,1093.51 616,1102.08 C434.44,1166.22 358.92,1054.58 184,1135.08 C156.17,1147.88 136.3301,1170.6711 123.1301,1188.8911 " fill="none" id="MembershipService-to-WalletService" style="stroke:#181818;stroke-width:1.0;"/><polygon fill="#181818" points="119.61,1193.75,128.1295,1188.8085,122.5435,1189.7009,121.651,1184.1149,119.61,1193.75" style="stroke:#181818;stroke-width:1.0;"/><text fill="#000000" font-family="sans-serif" font-size="13" lengthAdjust="spacing" textLength="125.8423" x="585" y="1123.1469">Add funds to wallet</text></g><!--link WalletService to PaymentService--><g id="link_WalletService_PaymentService"><path d="M119.96,1193.64 C133.29,1175.61 156.61,1148.38 184,1135.08 C296.32,1080.53 354.15,1163.25 463,1102.08 C529.59,1064.65 510,1015.3 569,966.78 C696.46,861.94 745.02,855.22 900,798.48 C960.03,776.51 981.48,791.23 1040,765.48 C1063.09,755.33 1081.8639,742.3765 1098.1139,729.6665 " fill="none" id="WalletService-to-PaymentService" style="stroke:#181818;stroke-width:1.0;"/><polygon fill="#181818" points="1102.84,725.97,1093.2865,728.3641,1098.9016,729.0504,1098.2152,734.6655,1102.84,725.97" style="stroke:#181818;stroke-width:1.0;"/><text fill="#000000" font-family="sans-serif" font-size="13" lengthAdjust="spacing" textLength="103.1812" x="600" y="954.8469">Wallet payment</text></g><!--SRC=[TPLDZvim48Rl_XKMzwZt7YeXsYD91DhaKFNWW9Ur10RP9gkewd-llrRuOtoTzntcOUmP2peemgUPukfDKe5Rmib45yfLXOd4Rot-Yp0MiQkduia6MkLAHxTLChMA5o3MqoJeH1IK-EkfIyeA_KCeK6wKZsi6TSkWd0_6SbeHpCabDAV2S5UnZlkWS4CKcTV9ebsR5CsxO3Ol5k6yNgBpCent4MD-dfUiTTO6qrcfo6RL4faL2sqZBuE3DVn0fMJST-wQTSuP2vrpOhbpJYzspiamOKUVZ7vYmaVS4VK5s7KfeFF1V4uhuZcvHETK6EwyAlRE1isrSjo_fAABnJltALxeX253Hn4rD9M0Gm-CNOyBu-bjhBFRQ6qmh9MAb5OjuLaHvchc_O5RkZoea1ziirXDXdKOOBP3Bm8UbXBbuO1HxsIUgKfxUCzWdGy6TLeHqiabGAS6SFfrEFt-OED8-P_J3xsNqIsEN1kaDs8OkRJeadYkICz-6Eawf8SjZ9nxfEzt6AbRLCVVQLhKn95xgn6FvmgVJFrWtU7l_j7RPg9N4LwDLg7eCR59yGutQVvXMknPIBmvW-vAOeLAVhqRCvDckM0z5xQopewijdAq0qssM-kRNwBRiKHHuZNfm0gm13wR1p9Gl93j2AGYQfV99z9kHnlIvFRxOs5ANoeJbz-4NQ_wnsCZtFEVJEg3UkN9QTLiMdrbEGZse5YjUD1JNw7SPxAZyJ6PzJZYzvsFqcH-MhL2iGi-AZ-m_gog_m00]--></g></svg>
