<svg xmlns="http://www.w3.org/2000/svg" xmlns:xlink="http://www.w3.org/1999/xlink" contentStyleType="text/css" height="1020px" preserveAspectRatio="none" style="width:970px;height:1020px;background:#FFFFFF;" version="1.1" viewBox="0 0 970 1020" width="970px" zoomAndPan="magnify"><defs/><g><!--entity US--><g id="elem_US"><rect fill="#F1F1F1" height="36.2969" rx="2.5" ry="2.5" style="stroke:#181818;stroke-width:0.5;" width="108.1016" x="347.95" y="7"/><text fill="#000000" font-family="sans-serif" font-size="14" lengthAdjust="spacing" textLength="88.1016" x="357.95" y="29.9951">User Service</text></g><!--entity VS--><g id="elem_VS"><rect fill="#F1F1F1" height="36.2969" rx="2.5" ry="2.5" style="stroke:#181818;stroke-width:0.5;" width="126.4629" x="200.77" y="104.3"/><text fill="#000000" font-family="sans-serif" font-size="14" lengthAdjust="spacing" textLength="106.4629" x="210.77" y="127.2951">Vendor Service</text></g><!--entity PCS--><g id="elem_PCS"><rect fill="#F1F1F1" height="36.2969" rx="2.5" ry="2.5" style="stroke:#181818;stroke-width:0.5;" width="188.1162" x="169.94" y="217.6"/><text fill="#000000" font-family="sans-serif" font-size="14" lengthAdjust="spacing" textLength="168.1162" x="179.94" y="240.5951">Product Catalog Service</text></g><!--entity OS--><g id="elem_OS"><rect fill="#F1F1F1" height="36.2969" rx="2.5" ry="2.5" style="stroke:#181818;stroke-width:0.5;" width="116.2227" x="352.89" y="330.89"/><text fill="#000000" font-family="sans-serif" font-size="14" lengthAdjust="spacing" textLength="96.2227" x="362.89" y="353.8851">Order Service</text></g><!--entity PS--><g id="elem_PS"><rect fill="#F1F1F1" height="36.2969" rx="2.5" ry="2.5" style="stroke:#181818;stroke-width:0.5;" width="138.1113" x="303.94" y="444.19"/><text fill="#000000" font-family="sans-serif" font-size="14" lengthAdjust="spacing" textLength="118.1113" x="313.94" y="467.1851">Payment Service</text></g><!--entity RRS--><g id="elem_RRS"><rect fill="#F1F1F1" height="36.2969" rx="2.5" ry="2.5" style="stroke:#181818;stroke-width:0.5;" width="207.4551" x="71.27" y="557.49"/><text fill="#000000" font-family="sans-serif" font-size="14" lengthAdjust="spacing" textLength="187.4551" x="81.27" y="580.4851">Review and Rating Service</text></g><!--entity NS--><g id="elem_NS"><rect fill="#F1F1F1" height="36.2969" rx="2.5" ry="2.5" style="stroke:#181818;stroke-width:0.5;" width="156.5205" x="365.74" y="654.78"/><text fill="#000000" font-family="sans-serif" font-size="14" lengthAdjust="spacing" textLength="136.5205" x="375.74" y="677.7751">Notification Service</text></g><!--entity AS--><g id="elem_AS"><rect fill="#F1F1F1" height="36.2969" rx="2.5" ry="2.5" style="stroke:#181818;stroke-width:0.5;" width="121.0557" x="494.47" y="768.08"/><text fill="#000000" font-family="sans-serif" font-size="14" lengthAdjust="spacing" textLength="101.0557" x="504.47" y="791.0751">Admin Service</text></g><!--entity CMS--><g id="elem_CMS"><rect fill="#F1F1F1" height="36.2969" rx="2.5" ry="2.5" style="stroke:#181818;stroke-width:0.5;" width="198.5957" x="467.7" y="865.38"/><text fill="#000000" font-family="sans-serif" font-size="14" lengthAdjust="spacing" textLength="178.5957" x="477.7" y="888.3751">Club Membership Service</text></g><!--entity WS--><g id="elem_WS"><rect fill="#F1F1F1" height="36.2969" rx="2.5" ry="2.5" style="stroke:#181818;stroke-width:0.5;" width="120.4951" x="619.75" y="978.67"/><text fill="#000000" font-family="sans-serif" font-size="14" lengthAdjust="spacing" textLength="100.4951" x="629.75" y="1001.6651">Wallet Service</text></g><!--link US to VS--><!--link VS to PCS--><!--link VS to PCS--><g id="link_VS_PCS"><path d="M262.45,140.87 C261.48,153.77 260.5,171.77 261,187.6 C261.31,197.43 261.5654,202.425 262.1954,211.305 " fill="none" id="VS-to-PCS-1" style="stroke:#181818;stroke-width:1.0;"/><polygon fill="#181818" points="262.62,217.29,265.9731,208.0295,262.2662,212.3025,257.9931,208.5956,262.62,217.29" style="stroke:#181818;stroke-width:1.0;"/><text fill="#000000" font-family="sans-serif" font-size="13" lengthAdjust="spacing" textLength="143.2476" x="262" y="183.6669">Vendor adds products</text></g><!--link PCS to OS--><!--link PCS to OS--><g id="link_PCS_OS"><path d="M279.18,254.38 C291.49,268.06 309.74,286.96 328,300.89 C342.63,312.05 354.8815,319.556 370.0715,327.696 " fill="none" id="PCS-to-OS-1" style="stroke:#181818;stroke-width:1.0;"/><polygon fill="#181818" points="375.36,330.53,369.3166,322.7533,370.9529,328.1683,365.5379,329.8047,375.36,330.53" style="stroke:#181818;stroke-width:1.0;"/><text fill="#000000" font-family="sans-serif" font-size="13" lengthAdjust="spacing" textLength="93.2026" x="329" y="296.9569">Product listing</text></g><!--link OS to PS--><!--link OS to PS--><g id="link_OS_PS"><path d="M388.3,367.28 C379.59,375.3 370.63,385.63 366,397.19 C360,412.16 361.3401,424.8156 365.0801,438.0656 " fill="none" id="OS-to-PS-1" style="stroke:#181818;stroke-width:1.0;"/><polygon fill="#181818" points="366.71,443.84,368.1147,434.0918,365.3518,439.028,360.4156,436.265,366.71,443.84" style="stroke:#181818;stroke-width:1.0;"/><text fill="#000000" font-family="sans-serif" font-size="13" lengthAdjust="spacing" textLength="99.2139" x="367" y="410.2569">Order payment</text></g><!--link PS to RRS--><!--link RRS to NS--><!--link NS to AS--><!--link AS to CMS--><!--link CMS to WS--><!--link CMS to WS--><g id="link_CMS_WS"><path d="M542.11,901.93 C526.55,914.98 511.47,933.18 523,948.67 C545.08,978.36 579.2674,989.2974 613.4374,993.6174 " fill="none" id="CMS-to-WS-1" style="stroke:#181818;stroke-width:1.0;"/><polygon fill="#181818" points="619.39,994.37,610.9628,989.2727,614.4295,993.7429,609.9594,997.2096,619.39,994.37" style="stroke:#181818;stroke-width:1.0;"/><text fill="#000000" font-family="sans-serif" font-size="13" lengthAdjust="spacing" textLength="125.8423" x="524" y="944.7369">Add funds to wallet</text></g><!--link US to OS--><g id="link_US_OS"><path d="M404.28,43.61 C409.58,85.15 422.61,193.19 427,283.89 C427.37,291.44 428.23,293.44 427,300.89 C425.34,310.96 423.9449,316.1527 420.6249,324.8727 " fill="none" id="US-to-OS" style="stroke:#181818;stroke-width:1.0;"/><polygon fill="#181818" points="418.49,330.48,425.4306,323.4923,420.2691,325.8072,417.9541,320.6457,418.49,330.48" style="stroke:#181818;stroke-width:1.0;"/><text fill="#000000" font-family="sans-serif" font-size="13" lengthAdjust="spacing" textLength="75.4292" x="420" y="183.6669">User orders</text></g><!--link PS to NS--><g id="link_PS_NS"><path d="M369.74,480.95 C365.77,506.72 361.27,555.76 376,593.78 C385.42,618.1 401.5074,635.9405 417.5774,650.3105 " fill="none" id="PS-to-NS" style="stroke:#181818;stroke-width:1.0;"/><polygon fill="#181818" points="422.05,654.31,418.0074,645.3291,418.3228,650.9771,412.6748,651.2925,422.05,654.31" style="stroke:#181818;stroke-width:1.0;"/><text fill="#000000" font-family="sans-serif" font-size="13" lengthAdjust="spacing" textLength="134.7354" x="377" y="580.1969">Payment notification</text></g><!--link OS to NS--><g id="link_OS_NS"><path d="M465.88,367.49 C479.81,374.54 493.29,384.18 502,397.19 C550.73,469.98 547.86,512.19 516,593.78 C506.34,618.53 489.3684,636.3178 472.3484,650.5078 " fill="none" id="OS-to-NS" style="stroke:#181818;stroke-width:1.0;"/><polygon fill="#181818" points="467.74,654.35,477.2141,651.659,471.5804,651.1482,472.0912,645.5144,467.74,654.35" style="stroke:#181818;stroke-width:1.0;"/><text fill="#000000" font-family="sans-serif" font-size="13" lengthAdjust="spacing" textLength="158.4883" x="539" y="523.5569">Order status notification</text></g><!--link US to RRS--><g id="link_US_RRS"><path d="M347.77,27.94 C239.31,33 6,51.97 6,121.45 C6,121.45 6,121.45 6,463.34 C6,512.52 50.871,539.2348 96.681,555.1148 " fill="none" id="US-to-RRS" style="stroke:#181818;stroke-width:1.0;"/><polygon fill="#181818" points="102.35,557.08,95.1565,550.3529,97.6258,555.4424,92.5363,557.9116,102.35,557.08" style="stroke:#181818;stroke-width:1.0;"/><text fill="#000000" font-family="sans-serif" font-size="13" lengthAdjust="spacing" textLength="149.9634" x="7" y="296.9569">Submit reviews/ratings</text></g><!--link RRS to PCS--><g id="link_RRS_PCS"><path d="M176.24,556.99 C178.8,524.78 185.76,454.51 201,397.19 C215.3,343.4 239.5342,288.5031 253.1042,259.5431 " fill="none" id="RRS-to-PCS" style="stroke:#181818;stroke-width:1.0;"/><polygon fill="#181818" points="255.65,254.11,248.2092,260.5624,253.5285,258.6376,255.4533,263.9569,255.65,254.11" style="stroke:#181818;stroke-width:1.0;"/><text fill="#000000" font-family="sans-serif" font-size="13" lengthAdjust="spacing" textLength="151.7661" x="202" y="410.2569">Display reviews/ratings</text></g><!--link US to CMS--><g id="link_US_CMS"><path d="M456.36,26.44 C575.49,28.53 849,42 849,121.45 C849,121.45 849,121.45 849,787.23 C849,826.89 753.5134,852.1775 672.3234,866.9275 " fill="none" id="US-to-CMS" style="stroke:#181818;stroke-width:1.0;"/><polygon fill="#181818" points="666.42,868,675.99,870.3269,671.3395,867.1063,674.5601,862.4557,666.42,868" style="stroke:#181818;stroke-width:1.0;"/><text fill="#000000" font-family="sans-serif" font-size="13" lengthAdjust="spacing" textLength="112.436" x="850" y="466.9069">Subscribe to club</text></g><!--link WS to PS--><g id="link_WS_PS"><path d="M690.77,978.43 C702.92,957.12 721,919.53 721,884.52 C721,574.63 721,574.63 721,574.63 C721,544.49 722.21,529.72 699,510.49 C661.02,479.01 532.2048,468.7986 448.2948,465.3186 " fill="none" id="WS-to-PS" style="stroke:#181818;stroke-width:1.0;"/><polygon fill="#181818" points="442.3,465.07,451.1265,469.4395,447.2957,465.2772,451.458,461.4464,442.3,465.07" style="stroke:#181818;stroke-width:1.0;"/><text fill="#000000" font-family="sans-serif" font-size="13" lengthAdjust="spacing" textLength="103.1812" x="722" y="734.1469">Wallet payment</text></g><!--SRC=[PP8_RyCW4CLtVueJUzIzGoNBNUD4jf8CLGTiBWaI1Wjmedpx7jZvS-d0SlS3xhrx7liexSaWY5r03otwY-vHW0omQml_RE_HAiU1FGEstgcfZr39A8qxCN9RCNJZrTjV6_wKl0re8t-24GrUD5v1MWMDZDhoxvg6mRMB-gXxufnbNCsmKWsQzqlMhypKmHg73dquwv6HrPgX1saCylaFRL7iMbZzdBLIQ7zNNyc_FQyad-Ym6bcpUQC8ufKac0whaRYQLqXEoIjfR3giTXyqVmsVIp1SMbaGUU1vqDHQGY6L2Z3E-oScAtXSl-V2w90M9RAQh29rvoYCyy95rfLdppUN6DYN_Jskro_NGvHn2c_SeY7PGc0xTOEEu7DkmeVFeQ5PisjFGTywZ4RU_dFBQyci-RNGUzqXH0SzvKBCDcRx4b0g1SV9aYq4N7CQH75u5Rv4vAxy3m00]--></g></svg>
